<?xml version="1.0" encoding="UTF-8" standalone="no"?>
<!-- Created with Inkscape (http://www.inkscape.org/) -->

<svg
   width="256"
   height="256"
   viewBox="0 0 67.733331 67.733331"
   version="1.1"
   id="svg8"
   inkscape:version="1.2.1 (9c6d41e410, 2022-07-14, custom)"
   sodipodi:docname="neongecko.svg"
   xmlns:inkscape="http://www.inkscape.org/namespaces/inkscape"
   xmlns:sodipodi="http://sodipodi.sourceforge.net/DTD/sodipodi-0.dtd"
   xmlns="http://www.w3.org/2000/svg"
   xmlns:svg="http://www.w3.org/2000/svg"
   xmlns:rdf="http://www.w3.org/1999/02/22-rdf-syntax-ns#"
   xmlns:cc="http://creativecommons.org/ns#"
   xmlns:dc="http://purl.org/dc/elements/1.1/">
  <defs
     id="defs2">
    <rect
       x="62.534964"
       y="83.593183"
       width="168.56232"
       height="123.14891"
       id="rect1011" />
  </defs>
  <sodipodi:namedview
     id="base"
     pagecolor="#ffffff"
     bordercolor="#666666"
     borderopacity="1.0"
     inkscape:pageopacity="0.0"
     inkscape:pageshadow="2"
     inkscape:zoom="1.4"
     inkscape:cx="25.357143"
     inkscape:cy="47.142857"
     inkscape:document-units="mm"
     inkscape:current-layer="layer1"
     showgrid="false"
     units="px"
     inkscape:window-width="1920"
     inkscape:window-height="989"
     inkscape:window-x="0"
     inkscape:window-y="0"
     inkscape:window-maximized="1"
     inkscape:showpageshadow="2"
     inkscape:pagecheckerboard="0"
     inkscape:deskcolor="#d1d1d1" />
  <metadata
     id="metadata5">
    <rdf:RDF>
      <cc:Work
         rdf:about="">
        <dc:format>image/svg+xml</dc:format>
        <dc:type
           rdf:resource="http://purl.org/dc/dcmitype/StillImage" />
      </cc:Work>
    </rdf:RDF>
  </metadata>
  <g
     inkscape:label="Layer 1"
     inkscape:groupmode="layer"
     id="layer1"
     transform="translate(0,-229.26668)">
    <path
       sodipodi:type="star"
       style="opacity:1;fill:none;fill-opacity:1;stroke:#f2f2f2;stroke-width:2;stroke-miterlimit:4;stroke-dasharray:16,2;stroke-dashoffset:19.6;stroke-opacity:1"
       id="path985"
       sodipodi:sides="4"
       sodipodi:cx="33.866669"
       sodipodi:cy="263.13336"
       sodipodi:r1="25.794624"
       sodipodi:r2="23.831125"
       sodipodi:arg1="0.78539816"
       sodipodi:arg2="1.5707963"
       inkscape:flatsided="true"
       inkscape:rounded="0"
       inkscape:randomized="0"
       d="m 52.106223,281.37292 -36.479108,0 0,-36.47911 36.479107,0 z" />
    <g
       aria-label="N"
       transform="matrix(0.73730279,0,0,0.73730279,-30.206386,201.59719)"
       style="font-style:normal;font-weight:normal;font-size:40px;line-height:1.25;font-family:sans-serif;letter-spacing:0px;word-spacing:0px;fill:#f2f2f2;fill-opacity:1;stroke:none"
       id="flowRoot1007-3" />
    <g
       aria-label="NG"
       transform="matrix(0.20334574,0,0,0.20334574,7.1710258,236.42066)"
       id="text1009"
       style="font-size:85.3333px;white-space:pre;shape-inside:url(#rect1011);display:inline;fill:#ececec">
      <path
         d="m 128.53513,156.6114 q 0,1.16667 -0.45833,2.16667 -0.41667,1 -1.16667,1.75 -0.70833,0.70833 -1.70833,1.125 -1,0.41666 -2.125,0.41666 -1,0 -2.04167,-0.375 -1,-0.375 -1.79166,-1.20833 L 79.660149,119.15308 V 161.2364 H 68.82682 v -55.12498 q 0,-1.66666 0.916667,-3 0.958333,-1.375 2.416665,-2.04166 1.541666,-0.625 3.166666,-0.29167 1.624999,0.29167 2.791665,1.5 l 39.583317,41.29165 v -42.08332 h 10.83333 z"
         style="font-family:Audiowide;-inkscape-font-specification:Audiowide"
         id="path1171" />
      <path
         d="m 200.07676,155.77807 q 0,1.16667 -0.41666,2.16666 -0.41667,1 -1.16667,1.75 -0.70833,0.70834 -1.70833,1.125 -1,0.41667 -2.16667,0.41667 h -39.08332 q -1.49999,0 -3.24999,-0.33333 -1.70834,-0.375 -3.41667,-1.125 -1.66667,-0.75 -3.20833,-1.91667 -1.54167,-1.20833 -2.75,-2.875 -1.16667,-1.70833 -1.875,-3.91666 -0.70833,-2.25 -0.70833,-5.04167 v -29.33332 q 0,-1.5 0.33333,-3.20833 0.375,-1.75 1.125,-3.41667 0.75,-1.70833 1.95833,-3.24999 1.20834,-1.54167 2.875,-2.70834 1.70833,-1.20833 3.91667,-1.91666 2.20833,-0.70834 4.99999,-0.70834 h 44.04165 v 10.83333 h -44.04165 q -2.12499,0 -3.24999,1.125 -1.125,1.125 -1.125,3.33334 v 29.24998 q 0,2.08334 1.125,3.25 1.16666,1.125 3.24999,1.125 h 33.70832 v -13.58333 h -28.83332 v -10.91666 h 34.20832 q 1.16667,0 2.16667,0.45833 1,0.41667 1.70833,1.16667 0.75,0.75 1.16667,1.75 0.41666,0.95833 0.41666,2.08333 z"
         style="font-family:Audiowide;-inkscape-font-specification:Audiowide"
         id="path1173" />
    </g>
  </g>
</svg>
